<?xml version="1.0" encoding="UTF-8" standalone="no"?>
<!-- Created with Inkscape (http://www.inkscape.org/) -->

<svg
   xmlns:dc="http://purl.org/dc/elements/1.1/"
   xmlns:cc="http://creativecommons.org/ns#"
   xmlns:rdf="http://www.w3.org/1999/02/22-rdf-syntax-ns#"
   xmlns:svg="http://www.w3.org/2000/svg"
   xmlns="http://www.w3.org/2000/svg"
   xmlns:xlink="http://www.w3.org/1999/xlink"
   xmlns:sodipodi="http://sodipodi.sourceforge.net/DTD/sodipodi-0.dtd"
   xmlns:inkscape="http://www.inkscape.org/namespaces/inkscape"
   width="125.81013mm"
   height="114.19964mm"
   viewBox="0 0 125.81013 114.19964"
   version="1.1"
   id="svg8"
   inkscape:version="0.92.3 (2405546, 2018-03-11)"
   sodipodi:docname="proteines-cellule.svg"
   inkscape:export-filename="/home/jm/Documents/maelyn/CLN 3/cln-site/images/proteines-cellule.png"
   inkscape:export-xdpi="161.50999"
   inkscape:export-ydpi="161.50999">
  <defs
     id="defs2">
    <marker
       inkscape:stockid="Arrow1Send"
       orient="auto"
       refY="0"
       refX="0"
       id="Arrow1Send"
       style="overflow:visible"
       inkscape:isstock="true">
      <path
         id="path3335"
         d="M 0,0 5,-5 -12.5,0 5,5 Z"
         style="fill:#c80000;fill-opacity:1;fill-rule:evenodd;stroke:#c80000;stroke-width:1.00000003pt;stroke-opacity:1"
         transform="matrix(-0.2,0,0,-0.2,-1.2,0)"
         inkscape:connector-curvature="0" />
    </marker>
    <marker
       inkscape:stockid="Arrow1Lstart"
       orient="auto"
       refY="0"
       refX="0"
       id="marker3708"
       style="overflow:visible"
       inkscape:isstock="true">
      <path
         id="path3706"
         d="M 0,0 5,-5 -12.5,0 5,5 Z"
         style="fill:#000000;fill-opacity:1;fill-rule:evenodd;stroke:#000000;stroke-width:1.00000003pt;stroke-opacity:1"
         transform="matrix(0.8,0,0,0.8,10,0)"
         inkscape:connector-curvature="0" />
    </marker>
    <marker
       inkscape:stockid="Arrow1Lstart"
       orient="auto"
       refY="0"
       refX="0"
       id="marker3638"
       style="overflow:visible"
       inkscape:isstock="true">
      <path
         id="path3636"
         d="M 0,0 5,-5 -12.5,0 5,5 Z"
         style="fill:#000000;fill-opacity:1;fill-rule:evenodd;stroke:#000000;stroke-width:1.00000003pt;stroke-opacity:1"
         transform="matrix(0.8,0,0,0.8,10,0)"
         inkscape:connector-curvature="0" />
    </marker>
    <marker
       inkscape:stockid="Arrow1Lstart"
       orient="auto"
       refY="0"
       refX="0"
       id="marker3598"
       style="overflow:visible"
       inkscape:isstock="true">
      <path
         id="path3596"
         d="M 0,0 5,-5 -12.5,0 5,5 Z"
         style="fill:#000000;fill-opacity:1;fill-rule:evenodd;stroke:#000000;stroke-width:1.00000003pt;stroke-opacity:1"
         transform="matrix(0.8,0,0,0.8,10,0)"
         inkscape:connector-curvature="0" />
    </marker>
    <marker
       inkscape:stockid="Arrow1Lstart"
       orient="auto"
       refY="0"
       refX="0"
       id="Arrow1Lstart"
       style="overflow:visible"
       inkscape:isstock="true">
      <path
         id="path3320"
         d="M 0,0 5,-5 -12.5,0 5,5 Z"
         style="fill:#000000;fill-opacity:1;fill-rule:evenodd;stroke:#000000;stroke-width:1.00000003pt;stroke-opacity:1"
         transform="matrix(0.8,0,0,0.8,10,0)"
         inkscape:connector-curvature="0" />
    </marker>
    <radialGradient
       gradientUnits="userSpaceOnUse"
       id="id0"
       fy="1.64415"
       fx="3.2439799"
       r="0.56517702"
       cy="1.64415"
       cx="3.2439799">
      <stop
         id="stop3076"
         offset="0"
         style="stop-color:#ffffff;stop-opacity:1" />
      <stop
         id="stop3078"
         offset="1"
         style="stop-color:#8d5739;stop-opacity:1" />
    </radialGradient>
    <radialGradient
       gradientTransform="matrix(44.912939,0,0,44.912939,-43.250278,22.548274)"
       r="0.56517702"
       fy="1.64415"
       fx="3.2439799"
       cy="1.64415"
       cx="3.2439799"
       gradientUnits="userSpaceOnUse"
       id="radialGradient3792"
       xlink:href="#id0"
       inkscape:collect="always" />
    <radialGradient
       gradientUnits="userSpaceOnUse"
       id="id1"
       fy="1.9420201"
       fx="3.12991"
       r="1.07412"
       cy="1.9420201"
       cx="3.12991">
      <stop
         id="stop3081"
         offset="0"
         style="stop-color:#ffffff;stop-opacity:1" />
      <stop
         id="stop3083"
         offset="1"
         style="stop-color:#e5dcc6;stop-opacity:1" />
    </radialGradient>
    <radialGradient
       gradientTransform="matrix(58.717172,0,0,58.717172,-98.452988,6.5059596)"
       r="1.07412"
       fy="1.9420201"
       fx="3.12991"
       cy="1.9420201"
       cx="3.12991"
       gradientUnits="userSpaceOnUse"
       id="radialGradient3795"
       xlink:href="#id1"
       inkscape:collect="always" />
    <marker
       inkscape:stockid="Arrow1Send"
       orient="auto"
       refY="0"
       refX="0"
       id="Arrow1Send-6"
       style="overflow:visible"
       inkscape:isstock="true">
      <path
         inkscape:connector-curvature="0"
         id="path3335-2"
         d="M 0,0 5,-5 -12.5,0 5,5 Z"
         style="fill:#4f8200;fill-opacity:1;fill-rule:evenodd;stroke:#4f8200;stroke-width:1.00000003pt;stroke-opacity:1"
         transform="matrix(-0.2,0,0,-0.2,-1.2,0)" />
    </marker>
    <marker
       inkscape:stockid="Arrow1Send"
       orient="auto"
       refY="0"
       refX="0"
       id="Arrow1Send-6-0"
       style="overflow:visible"
       inkscape:isstock="true">
      <path
         inkscape:connector-curvature="0"
         id="path3335-2-9"
         d="M 0,0 5,-5 -12.5,0 5,5 Z"
         style="fill:#4f8200;fill-opacity:1;fill-rule:evenodd;stroke:#4f8200;stroke-width:1.00000003pt;stroke-opacity:1"
         transform="matrix(-0.2,0,0,-0.2,-1.2,0)" />
    </marker>
    <marker
       inkscape:stockid="Arrow1Send"
       orient="auto"
       refY="0"
       refX="0"
       id="Arrow1Send-6-0-6"
       style="overflow:visible"
       inkscape:isstock="true">
      <path
         inkscape:connector-curvature="0"
         id="path3335-2-9-0"
         d="M 0,0 5,-5 -12.5,0 5,5 Z"
         style="fill:#4f8200;fill-opacity:1;fill-rule:evenodd;stroke:#4f8200;stroke-width:1.00000003pt;stroke-opacity:1"
         transform="matrix(-0.2,0,0,-0.2,-1.2,0)" />
    </marker>
    <marker
       inkscape:stockid="Arrow1Send"
       orient="auto"
       refY="0"
       refX="0"
       id="Arrow1Send-6-0-8"
       style="overflow:visible"
       inkscape:isstock="true">
      <path
         inkscape:connector-curvature="0"
         id="path3335-2-9-7"
         d="M 0,0 5,-5 -12.5,0 5,5 Z"
         style="fill:#4f31ca;fill-opacity:1;fill-rule:evenodd;stroke:#4f31ca;stroke-width:1.00000003pt;stroke-opacity:1"
         transform="matrix(-0.2,0,0,-0.2,-1.2,0)" />
    </marker>
  </defs>
  <sodipodi:namedview
     id="base"
     pagecolor="#ffffff"
     bordercolor="#666666"
     borderopacity="1.0"
     inkscape:pageopacity="1"
     inkscape:pageshadow="2"
     inkscape:zoom="0.98994949"
     inkscape:cx="-123.61639"
     inkscape:cy="235.86282"
     inkscape:document-units="mm"
     inkscape:current-layer="layer1"
     showgrid="false"
     inkscape:window-width="1920"
     inkscape:window-height="1029"
     inkscape:window-x="0"
     inkscape:window-y="0"
     inkscape:window-maximized="1"
     fit-margin-top="0"
     fit-margin-left="0"
     fit-margin-right="0"
     fit-margin-bottom="0" />
  <metadata
     id="metadata5">
    <rdf:RDF>
      <cc:Work
         rdf:about="">
        <dc:format>image/svg+xml</dc:format>
        <dc:type
           rdf:resource="http://purl.org/dc/dcmitype/StillImage" />
        <dc:title />
      </cc:Work>
    </rdf:RDF>
  </metadata>
  <g
     inkscape:label="Calque 1"
     inkscape:groupmode="layer"
     id="layer1"
     transform="translate(-22.943745,-61.271354)">
    <path
       inkscape:connector-curvature="0"
       d="m 70.53562,65.084911 c -13.963128,5.828255 -29.859509,10.530045 -34.643371,24.48506 -4.784757,13.954549 -3.314751,28.355519 -8.265031,37.389459 -4.949808,9.0341 -5.370306,25.79785 10.334928,33.80747 15.705668,8.00977 52.900243,20.22137 64.300594,7.68596 11.40058,-12.53565 19.93724,-22.34741 33.03352,-33.29799 13.09621,-10.95098 13.09927,-30.32742 10.40585,-42.059519 C 143.00713,81.363015 129.24839,72.631007 115.65513,68.819264 102.06116,65.008197 82.518502,60.083147 70.53562,65.084946 Z"
       style="fill:url(#radialGradient3795);fill-rule:nonzero;stroke:#000000;stroke-width:3.26203823"
       id="path3087"
       inkscape:export-xdpi="161.50999"
       inkscape:export-ydpi="161.50999" />
    <path
       inkscape:connector-curvature="0"
       d="m 93.474586,78.451408 c -11.309931,1.254558 -12.26213,4.551748 -14.336975,14.62307 -2.074842,10.071462 0.959441,18.246332 10.330337,19.999872 9.370905,1.75337 27.617052,0.79357 32.989632,-3.52603 5.37275,-4.3196 5.17173,-20.52166 -0.49121,-24.814574 -5.66258,-4.292191 -24.024877,-6.777633 -28.491784,-6.282332 z"
       style="opacity:0.39300005;fill:url(#radialGradient3792);fill-rule:nonzero;stroke:#000000;stroke-width:1.24765897"
       id="path3089"
       inkscape:export-xdpi="161.50999"
       inkscape:export-ydpi="161.50999" />
    <g
       id="g5175"
       inkscape:export-xdpi="161.50999"
       inkscape:export-ydpi="161.50999">
      <path
         id="path3409"
         style="fill:#000000;fill-rule:nonzero;stroke-width:0.4003492"
         d="m 98.877927,94.556468 c -0.154907,-0.483733 0.111928,-1.859167 0.01518,-2.4334 -0.09334,-0.554941 -0.268394,-0.706018 -0.704738,-1.202229 0.204267,-0.165546 0.408119,-0.366129 0.488122,-0.590687 0.146245,-0.410958 0.485429,-1.430617 0.417908,-1.891935 -0.06739,-0.461458 0.108947,-0.938801 -0.394925,-0.937953 -0.310241,2.86e-4 -0.551677,0.755386 -0.574093,1.10747 -0.02255,0.352084 -0.0073,1.575312 -0.09532,1.852498 -0.02895,0.08994 -0.06497,0.171078 -0.102142,0.221579 -0.04313,-0.02596 -0.09192,-0.04029 -0.142281,-0.0444 -7.97e-4,-0.0029 -0.002,-0.0049 -0.0024,-0.0077 -0.05674,-0.225976 -0.133489,-1.179533 -0.09433,-2.005845 0.01226,-0.267115 -0.06257,-0.879505 -0.223283,-1.005334 -0.161287,-0.125832 -0.602181,-0.04269 -0.714531,0.465998 -0.07717,0.349249 -0.04255,1.51105 0.240451,2.160609 0.08937,0.203992 0.373365,0.376486 0.497488,0.532245 -0.05617,0.08101 -0.07433,0.185124 -0.04398,0.283432 -0.480896,0.42046 -0.66715,0.540756 -0.826454,1.058101 -0.163702,0.533096 -0.08356,1.873635 -0.291798,2.313955 -0.208101,0.440461 -0.229099,1.487639 0.05973,1.616159 0.288251,0.12824 0.619629,-0.07972 0.823469,-0.290093 0.203283,-0.210657 0.09434,-1.132578 0.194914,-1.559704 0.100291,-0.42741 -0.107396,-1.02434 -0.0522,-1.467782 0.05178,-0.417906 0.16512,-1.201522 0.360599,-1.440972 0.06155,0.0088 0.126679,5.59e-4 0.186683,-0.02837 0.01118,-0.0052 0.02154,-0.01118 0.03135,-0.0176 0.115331,0.348538 0.122142,1.027746 0.119298,1.411609 -0.004,0.46628 -0.301157,1.055126 -0.255622,1.51091 0.0454,0.455642 -0.194061,1.394307 -0.01226,1.640139 0.181858,0.245556 0.495647,0.505999 0.811843,0.412938 0.316625,-0.09349 0.438339,-1.179244 0.283428,-1.663685 z"
         inkscape:connector-curvature="0" />
      <path
         id="path3411"
         style="fill:#000000;fill-rule:nonzero;stroke-width:0.4003492"
         d="m 102.45729,91.698452 c -0.0719,-0.391522 0.2203,-1.557295 0.19647,-2.028114 -0.023,-0.455075 -0.13448,-0.567424 -0.40274,-0.94774 0.15591,-0.152919 0.31422,-0.335632 0.38756,-0.528981 0.13391,-0.353648 0.44968,-1.228615 0.43735,-1.607653 -0.012,-0.378896 0.1481,-0.790138 -0.20527,-0.751129 -0.2179,0.02398 -0.44472,0.671262 -0.48714,0.966464 -0.0426,0.294917 -0.12568,1.312451 -0.20824,1.549917 -0.0269,0.07717 -0.0585,0.147394 -0.0885,0.192497 -0.0284,-0.01829 -0.0616,-0.02651 -0.0968,-0.02625 -4e-4,-0.0023 -8.1e-4,-0.004 -8.1e-4,-0.0061 -0.0225,-0.184131 -0.004,-0.97214 0.0871,-1.663406 0.0287,-0.223424 0.0234,-0.728003 -0.0803,-0.820496 -0.10304,-0.09234 -0.41875,0.01046 -0.5365,0.442733 -0.0807,0.296902 -0.14512,1.261808 0.004,1.781144 0.0468,0.163132 0.23308,0.285132 0.30827,0.405281 -0.0459,0.07205 -0.0664,0.159871 -0.0528,0.239454 -0.3694,0.387126 -0.50912,0.50146 -0.66019,0.944193 -0.15591,0.456919 -0.20187,1.567367 -0.38118,1.949953 -0.17987,0.382726 -0.27477,1.256276 -0.0817,1.341249 0.19265,0.08512 0.44089,-0.113648 0.59962,-0.304143 0.15889,-0.191078 0.1525,-0.950577 0.25563,-1.314153 0.10315,-0.363578 0.002,-0.845036 0.0757,-1.218401 0.0679,-0.352087 0.20782,-1.013276 0.36273,-1.227903 0.0429,0.0028 0.089,-0.0093 0.13334,-0.03787 0.008,-0.0052 0.0156,-0.01058 0.023,-0.01687 0.0543,0.281302 0.007,0.846454 -0.0239,1.166627 -0.0386,0.388544 -0.29167,0.901634 -0.29465,1.277694 -0.002,0.37606 -0.24243,1.176128 -0.13348,1.366926 0.10856,0.190796 0.30896,0.383718 0.53764,0.282009 0.22924,-0.101853 0.39734,-1.015546 0.32598,-1.406926 z"
         inkscape:connector-curvature="0" />
      <path
         id="path3413"
         style="fill:#000000;fill-rule:nonzero;stroke-width:0.4003492"
         d="m 110.36402,99.905328 c -0.13972,-0.24342 -0.0939,-0.872271 -0.20483,-1.153145 -0.10724,-0.271511 -0.23038,-0.358473 -0.54699,-0.63225 0.11301,-0.06044 0.22326,-0.137737 0.25334,-0.237185 0.0556,-0.182001 0.17789,-0.635936 0.0953,-0.8605 -0.0831,-0.224839 -0.0145,-0.435779 -0.33008,-0.4799 -0.19436,-0.02724 -0.2789,0.309816 -0.26201,0.474935 0.0173,0.164979 0.13418,0.746591 0.10351,0.870142 -0.01,0.04013 -0.0256,0.07561 -0.0441,0.09632 -0.0297,-0.01619 -0.0614,-0.02738 -0.0933,-0.03376 -4.1e-4,-0.0018 -8.1e-4,-0.0025 -0.002,-0.0037 -0.0558,-0.112193 -0.18768,-0.571113 -0.23607,-0.95966 -0.0156,-0.125545 -0.11637,-0.422733 -0.22823,-0.496781 -0.11193,-0.07377 -0.38074,-0.07335 -0.40614,0.158313 -0.0175,0.158597 0.10652,0.71311 0.34117,1.045907 0.0732,0.104823 0.26627,0.211646 0.35818,0.296477 -0.0284,0.03351 -0.0303,0.08101 -0.002,0.130374 -0.26385,0.157178 -0.36982,0.197747 -0.42373,0.429115 -0.0555,0.238455 0.11253,0.881345 0.0212,1.072008 -0.0915,0.190647 -0.0127,0.685302 0.1793,0.771692 0.19207,0.0865 0.38117,0.017 0.49012,-0.0651 0.10916,-0.0817 -0.0408,-0.528696 -0.0153,-0.722471 0.0255,-0.193775 -0.1576,-0.495358 -0.162,-0.700772 -0.005,-0.193775 -0.002,-0.555507 0.0991,-0.651829 0.0393,0.0097 0.0792,0.01142 0.11446,0.0031 0.006,-0.0018 0.0123,-0.0031 0.0178,-0.0054 0.10279,0.17519 0.16711,0.497911 0.19887,0.679771 0.0386,0.220868 -0.0954,0.473929 -0.0269,0.694099 0.0687,0.220169 8.1e-4,0.644462 0.13677,0.776812 0.13547,0.13264 0.35491,0.28399 0.54472,0.26739 0.1898,-0.0165 0.17023,-0.52075 0.0308,-0.763887 z"
         inkscape:connector-curvature="0" />
      <path
         id="path3415"
         style="fill:#000000;fill-rule:nonzero;stroke-width:0.4003492"
         d="m 119.38631,90.540763 c -0.1396,-0.243141 -0.0939,-0.87199 -0.20471,-1.152866 -0.10748,-0.271654 -0.23023,-0.358754 -0.54743,-0.632395 0.11338,-0.06057 0.22357,-0.13774 0.25364,-0.237185 0.0555,-0.18214 0.17788,-0.63594 0.0953,-0.860638 -0.0828,-0.224558 -0.0145,-0.435642 -0.32996,-0.479758 -0.19448,-0.0271 -0.27903,0.309812 -0.26187,0.474792 0.0168,0.165263 0.13392,0.74659 0.10328,0.870431 -0.01,0.04014 -0.0257,0.07532 -0.0443,0.09603 -0.0294,-0.01618 -0.0613,-0.0271 -0.0932,-0.03376 -3.9e-4,-0.0011 -7.9e-4,-0.0024 -7.9e-4,-0.0037 -0.0556,-0.112217 -0.18741,-0.571112 -0.23592,-0.959659 -0.0155,-0.125545 -0.11613,-0.422729 -0.22809,-0.496495 -0.11193,-0.07404 -0.38075,-0.07348 -0.40642,0.158027 -0.0176,0.158877 0.10651,0.713109 0.34117,1.046187 0.0738,0.104547 0.26653,0.211364 0.35818,0.296196 -0.0281,0.03363 -0.0303,0.0813 -0.004,0.130644 -0.26413,0.156895 -0.36995,0.197467 -0.42387,0.429112 -0.056,0.238464 0.11265,0.881349 0.021,1.072008 -0.0915,0.190512 -0.0126,0.685308 0.17944,0.771555 0.19208,0.08652 0.38132,0.01689 0.48999,-0.06497 0.10916,-0.08186 -0.0405,-0.528982 -0.0153,-0.722758 0.0255,-0.193778 -0.15747,-0.49508 -0.162,-0.700769 -0.005,-0.193492 -0.002,-0.555507 0.0989,-0.651686 0.0394,0.0095 0.0792,0.01118 0.11457,0.0029 0.006,-0.0014 0.0123,-0.0032 0.0178,-0.0052 0.10255,0.175332 0.1671,0.498197 0.19888,0.679771 0.0386,0.22087 -0.0953,0.47394 -0.0267,0.694104 0.0684,0.220158 8.1e-4,0.644449 0.13663,0.776803 0.13532,0.132779 0.35506,0.283997 0.54471,0.267681 0.18982,-0.01645 0.17039,-0.520754 0.0308,-0.764179 z"
         inkscape:connector-curvature="0" />
      <path
         id="path3417"
         style="fill:#000000;fill-rule:nonzero;stroke-width:0.4003492"
         d="m 102.44901,96.389022 c 0.45749,-0.221863 1.8566,-0.152207 2.41126,-0.32925 0.53621,-0.17079 0.66077,-0.3657 1.0903,-0.867869 0.19265,0.178876 0.42033,0.352365 0.65396,0.399746 0.42756,0.08654 1.48523,0.278041 1.9318,0.146107 0.44713,-0.132204 0.94504,-0.02509 0.87283,-0.523873 -0.0442,-0.307258 -0.82588,-0.439326 -1.17768,-0.411662 -0.35138,0.02779 -1.56055,0.215474 -1.8474,0.167813 -0.0927,-0.01565 -0.17831,-0.04013 -0.23363,-0.06966 0.0196,-0.04639 0.0269,-0.09676 0.0239,-0.147398 0.002,-0.0012 0.005,-0.0018 0.007,-0.0031 0.21548,-0.08823 1.14846,-0.298888 1.97193,-0.377195 0.26641,-0.02552 0.86207,-0.185973 0.96378,-0.363434 0.10207,-0.176897 -0.0432,-0.602039 -0.5626,-0.641191 -0.35677,-0.0271 -1.50184,0.171504 -2.10485,0.544018 -0.1891,0.11717 -0.31962,0.422585 -0.45594,0.567847 -0.0886,-0.04455 -0.19405,-0.04768 -0.28739,-0.0037 -0.48374,-0.416633 -0.62942,-0.583739 -1.16408,-0.668283 -0.55125,-0.0868 -1.86682,0.182426 -2.33211,0.03887 -0.46529,-0.14399 -1.50467,-0.01645 -1.5912,0.287257 -0.0865,0.304278 0.16612,0.602317 0.40358,0.774389 0.23705,0.171503 1.13428,-0.06695 1.57177,-0.02781 0.43692,0.03896 0.99838,-0.251232 1.44551,-0.259602 0.42088,-0.0081 1.21257,-0.0061 1.47743,0.153491 0,0.06198 0.0175,0.124834 0.0543,0.180864 0.007,0.01 0.0141,0.01927 0.0219,0.02841 -0.32839,0.163139 -0.99981,0.26655 -1.38054,0.317335 -0.46174,0.06213 -1.08691,-0.148244 -1.53163,-0.03884 -0.44472,0.109524 -1.40791,0.0054 -1.62538,0.220023 -0.21761,0.214487 -0.43053,0.56246 -0.29378,0.862199 0.13732,0.299883 1.22961,0.266831 1.68653,0.0448 z"
         inkscape:connector-curvature="0" />
      <path
         id="path3419"
         style="fill:#000000;fill-rule:nonzero;stroke-width:0.4003492"
         d="m 122.90838,101.36352 c -0.15492,-0.48401 0.11193,-1.859446 0.0153,-2.433539 -0.0933,-0.555083 -0.26882,-0.705875 -0.70489,-1.202375 0.20426,-0.165401 0.40798,-0.365841 0.48799,-0.590686 0.14626,-0.410957 0.48543,-1.430619 0.41804,-1.891933 -0.0673,-0.461176 0.10904,-0.938665 -0.39492,-0.937953 -0.31051,5.59e-4 -0.55167,0.755383 -0.57424,1.107756 -0.0224,0.352085 -0.007,1.575021 -0.0954,1.852352 -0.0284,0.08966 -0.0647,0.170794 -0.10171,0.221438 -0.0433,-0.02584 -0.0923,-0.04032 -0.14271,-0.04442 -6e-4,-0.0031 -8e-4,-0.0049 -0.002,-0.0077 -0.0568,-0.225974 -0.1332,-1.179534 -0.0944,-2.005707 0.0127,-0.267248 -0.0622,-0.879647 -0.22299,-1.005474 -0.16116,-0.125828 -0.60218,-0.0427 -0.71481,0.466001 -0.0773,0.34925 -0.0426,1.511049 0.24085,2.160892 0.0892,0.203705 0.37295,0.376194 0.49736,0.531815 -0.0565,0.08142 -0.0747,0.185264 -0.0443,0.283711 -0.4806,0.420321 -0.66687,0.540615 -0.82587,1.057823 -0.16426,0.533517 -0.0838,1.873779 -0.29209,2.314379 -0.20809,0.44032 -0.22909,1.48765 0.0596,1.61588 0.28853,0.12824 0.61991,-0.0794 0.8232,-0.29009 0.20384,-0.21065 0.0944,-1.13258 0.19505,-1.55971 0.10051,-0.42741 -0.10712,-1.02434 -0.0523,-1.467785 0.0515,-0.417908 0.16542,-1.201231 0.36089,-1.440687 0.0616,0.0084 0.12639,1.41e-4 0.18668,-0.02866 0.0108,-0.0049 0.0213,-0.01118 0.0311,-0.0173 0.11518,0.348397 0.12257,1.027465 0.11902,1.411326 -0.004,0.466283 -0.30072,1.055126 -0.25504,1.510916 0.0452,0.45564 -0.19392,1.39431 -0.0126,1.63999 0.18158,0.24569 0.49566,0.50614 0.81198,0.4128 0.31621,-0.093 0.4382,-1.17896 0.28329,-1.66312 z"
         inkscape:connector-curvature="0" />
      <path
         id="path3421"
         style="fill:#000000;fill-rule:nonzero;stroke-width:0.4003492"
         d="m 101.61379,106.49404 c 0.37621,-0.34158 1.7383,-0.66884 2.22104,-0.99455 0.46628,-0.31521 0.53083,-0.53735 0.80206,-1.1401 0.23505,0.11746 0.50245,0.21987 0.73991,0.1993 0.43452,-0.0371 1.50326,-0.15092 1.89464,-0.40344 0.39194,-0.25236 0.89979,-0.28981 0.69012,-0.74814 -0.12908,-0.28229 -0.91639,-0.18909 -1.24578,-0.0635 -0.32982,0.12555 -1.43672,0.64602 -1.72553,0.68105 -0.0933,0.0108 -0.1823,0.012 -0.244,-6e-4 0.006,-0.05 -0.001,-0.10075 -0.0184,-0.14839 0.002,-0.001 0.004,-0.004 0.006,-0.005 0.18228,-0.1454 1.01796,-0.61041 1.78625,-0.91725 0.24825,-0.0993 0.7751,-0.42102 0.82248,-0.6199 0.0478,-0.19874 -0.21065,-0.56573 -0.71992,-0.4572 -0.34983,0.0748 -1.39274,0.58756 -1.86682,1.1147 -0.14909,0.16568 -0.1881,0.4955 -0.27804,0.67324 -0.0973,-0.0177 -0.19945,0.008 -0.27662,0.0775 -0.58161,-0.26342 -0.76829,-0.38316 -1.30479,-0.31349 -0.55323,0.0715 -1.74043,0.70019 -2.22714,0.69337 -0.48728,-0.007 -1.448918,0.40785 -1.446085,0.72376 0.0029,0.31619 0.329391,0.53154 0.605015,0.62928 0.2762,0.098 1.06974,-0.38344 1.50041,-0.46913 0.43053,-0.0854 0.88787,-0.52202 1.31402,-0.65565 0.40173,-0.12626 1.16221,-0.34741 1.46082,-0.26882 0.018,0.0596 0.0523,0.11518 0.10352,0.15817 0.01,0.008 0.0191,0.0147 0.0287,0.0214 -0.26924,0.24881 -0.88447,0.53693 -1.23542,0.69297 -0.42557,0.18966 -1.08492,0.16384 -1.4807,0.39393 -0.39592,0.23023 -1.34933,0.40131 -1.49743,0.66828 -0.148667,0.2674 -0.255622,0.66105 -0.03961,0.91027 0.2159,0.24897 1.255,-0.0899 1.63134,-0.43151 z"
         inkscape:connector-curvature="0" />
      <path
         id="path3423"
         style="fill:#000000;fill-rule:nonzero;stroke-width:0.4003492"
         d="m 100.63266,98.506229 c 0.0284,0.242856 0.50529,0.887166 0.58786,1.169607 0.0797,0.273215 0.0175,0.357334 -0.10857,0.624724 0.15348,0.0661 0.31577,0.14925 0.41351,0.25237 0.17987,0.18796 0.61239,0.65651 0.68474,0.88277 0.0718,0.2264 0.28428,0.44458 0.002,0.47706 -0.17349,0.02 -0.4887,-0.3274 -0.58502,-0.49536 -0.0962,-0.16809 -0.37917,-0.75751 -0.49408,-0.88504 -0.0376,-0.0416 -0.0772,-0.0779 -0.10989,-0.1 -0.018,0.0152 -0.0419,0.0255 -0.0694,0.0306 4.1e-4,0.002 4.1e-4,0.002 4.1e-4,0.004 0.0225,0.11265 0.20611,0.57608 0.42457,0.971 0.0709,0.12782 0.17448,0.42742 0.11446,0.49849 -0.0601,0.0708 -0.32698,0.0598 -0.51069,-0.17775 -0.12667,-0.16285 -0.38371,-0.72417 -0.37975,-1.05527 0.002,-0.10381 0.11916,-0.20526 0.15193,-0.28838 -0.0508,-0.0354 -0.086,-0.084 -0.0923,-0.13363 -0.36897,-0.1708 -0.50189,-0.21648 -0.714528,-0.454929 -0.218459,-0.245842 -0.492525,-0.896114 -0.713961,-1.094284 -0.221442,-0.198458 -0.482457,-0.700769 -0.35138,-0.78134 0.130931,-0.08071 0.365986,-0.0025 0.530255,0.08568 0.163703,0.08794 0.322013,0.538766 0.479899,0.737798 0.158315,0.199016 0.184275,0.499894 0.320165,0.709562 0.12853,0.197603 0.37862,0.567143 0.5453,0.669423 0.0324,-0.008 0.0704,-0.008 0.11094,0.002 0.008,0.002 0.0147,0.004 0.022,0.006 -0.0186,-0.175191 -0.17633,-0.502317 -0.26924,-0.686866 -0.11335,-0.224005 -0.41976,-0.488131 -0.50288,-0.710284 -0.083,-0.222144 -0.440325,-0.658354 -0.397344,-0.788151 0.04298,-0.129946 0.157458,-0.275765 0.356194,-0.251655 0.19946,0.02424 0.52587,0.538914 0.5548,0.781775 z"
         inkscape:connector-curvature="0" />
      <path
         id="path3425"
         style="fill:#000000;fill-rule:nonzero;stroke-width:0.4003492"
         d="m 109.2802,105.22069 c -0.36373,-0.35535 -0.77226,-1.69561 -1.12605,-2.1575 -0.34258,-0.44684 -0.56829,-0.49791 -1.18606,-0.73225 0.10316,-0.24173 0.18909,-0.51437 0.15448,-0.75042 -0.0631,-0.43153 -0.24101,-1.49162 -0.51664,-1.867395 -0.27562,-0.376056 -0.34357,-0.880639 -0.78829,-0.643887 -0.27406,0.14597 -0.13392,0.925893 0.0108,1.247762 0.14525,0.32159 0.73169,1.39516 0.78347,1.68128 0.0171,0.0926 0.023,0.18129 0.0136,0.24343 -0.0501,-0.003 -0.10015,0.007 -0.14654,0.0274 -0.002,-0.002 -0.004,-0.004 -0.006,-0.006 -0.15633,-0.17293 -0.67056,-0.97937 -1.02336,-1.72781 -0.11385,-0.24186 -0.46671,-0.747865 -0.668,-0.783902 -0.20101,-0.03562 -0.55182,0.244421 -0.41309,0.746312 0.0953,0.34485 0.67013,1.35514 1.22478,1.79646 0.17449,0.13859 0.50572,0.15789 0.68857,0.23733 -0.012,0.0982 0.021,0.19831 0.0938,0.27123 -0.22767,0.59636 -0.33619,0.78999 -0.23448,1.32167 0.10508,0.54784 0.80391,1.69462 0.82645,2.18119 0.0219,0.4867 0.49409,1.42181 0.8093,1.40011 0.3152,-0.0218 0.5101,-0.36074 0.59181,-0.6419 0.0812,-0.28158 -0.44726,-1.0452 -0.55861,-1.46962 -0.11145,-0.42445 -0.57423,-0.85441 -0.73355,-1.27232 -0.15007,-0.39336 -0.41648,-1.13896 -0.35577,-1.44197 0.0582,-0.0213 0.11133,-0.0589 0.1515,-0.11265 0.007,-0.01 0.0136,-0.0199 0.0193,-0.0301 0.26442,0.25393 0.58941,0.85056 0.76631,1.19131 0.21462,0.41379 0.22824,1.07313 0.48188,1.45458 0.25365,0.38118 0.48189,1.32269 0.75708,1.45461 0.27564,0.13193 0.67538,0.21533 0.91087,-0.0153 0.23577,-0.23051 -0.16512,-1.24692 -0.5287,-1.60198 z"
         inkscape:connector-curvature="0" />
      <path
         id="path3427"
         style="fill:#000000;fill-rule:nonzero;stroke-width:0.4003492"
         d="m 112.50574,104.67662 c 0.23605,-0.45011 1.40353,-1.22494 1.74497,-1.69632 0.33009,-0.45592 0.31448,-0.68687 0.3623,-1.34579 0.261,0.0295 0.54713,0.0342 0.76318,-0.0665 0.39563,-0.18426 1.36025,-0.65778 1.64185,-1.02917 0.28142,-0.37167 0.74531,-0.580901 0.39109,-0.939644 -0.2179,-0.220866 -0.92534,0.136599 -1.19187,0.367824 -0.26683,0.23095 -1.1279,1.09981 -1.38721,1.2316 -0.084,0.0427 -0.16739,0.0735 -0.22953,0.0827 -0.012,-0.0488 -0.0358,-0.094 -0.0682,-0.13291 0.002,-0.002 0.002,-0.004 0.004,-0.006 0.1213,-0.19917 0.74689,-0.92235 1.3631,-1.474453 0.19917,-0.178316 0.58332,-0.661333 0.56005,-0.864474 -0.0233,-0.202858 -0.39195,-0.458901 -0.83354,-0.182289 -0.303,0.190095 -1.10663,1.029875 -1.37077,1.687526 -0.0831,0.2064 -0.007,0.52998 -0.0303,0.72772 -0.0975,0.0168 -0.18426,0.0766 -0.23306,0.16739 -0.6368,-0.0477 -0.85299,-0.096 -1.33374,0.15335 -0.49507,0.25704 -1.39374,1.25472 -1.85363,1.41558 -0.4599,0.16057 -1.22096,0.88022 -1.11017,1.17585 0.11121,0.29591 0.49196,0.38599 0.78475,0.38357 0.29266,-0.004 0.87299,-0.72742 1.24818,-0.95539 0.37507,-0.22797 0.65454,-0.79483 1.00932,-1.0669 0.33406,-0.25634 0.97201,-0.72489 1.27997,-0.75355 0.037,0.05 0.0882,0.0902 0.15122,0.1132 0.012,0.004 0.023,0.007 0.0345,0.01 -0.16766,0.32627 -0.64657,0.80788 -0.92249,1.07499 -0.33493,0.32427 -0.96291,0.52586 -1.256,0.87795 -0.29263,0.3518 -1.12958,0.83978 -1.17726,1.14165 -0.0476,0.30173 -0.0129,0.70856 0.27549,0.86844 0.28826,0.15974 1.14762,-0.51522 1.38395,-0.96504 z"
         inkscape:connector-curvature="0" />
      <path
         id="path3429"
         style="fill:#000000;fill-rule:nonzero;stroke-width:0.4003492"
         d="m 111.04033,92.474929 c -0.32797,-0.02837 -0.93001,-0.732544 -1.27797,-0.843335 -0.33677,-0.106807 -0.49849,-0.0035 -0.96378,0.211934 0.008,-0.236333 -0.002,-0.484577 -0.0845,-0.631684 -0.14852,-0.2691 -0.52928,-0.915821 -0.8039,-1.013846 -0.27506,-0.09773 -0.44514,-0.415922 -0.67977,0.02878 -0.14414,0.273925 0.14172,0.744177 0.3172,0.884191 0.1759,0.139738 0.82885,0.543165 0.93382,0.715378 0.0344,0.05575 0.0601,0.115331 0.0699,0.165123 -0.0343,0.02965 -0.0646,0.06779 -0.0899,0.110786 -0.002,-2.87e-4 -0.004,-2.87e-4 -0.006,-4.43e-4 -0.14554,-0.02723 -0.68459,-0.284563 -1.10348,-0.600476 -0.13492,-0.102142 -0.4931,-0.245131 -0.63481,-0.145836 -0.14173,0.09887 -0.30301,0.516356 -0.087,0.789002 0.1485,0.187108 0.77849,0.552528 1.25343,0.524157 0.14909,-0.009 0.37252,-0.200584 0.51281,-0.257326 0.0166,0.07746 0.063,0.128812 0.12896,0.135622 -0.002,0.567423 -0.0254,0.77269 0.1739,1.089311 0.20528,0.32641 0.95058,0.712544 1.08592,1.046048 0.13561,0.333785 0.6789,0.709426 0.88148,0.498481 0.20231,-0.210511 0.24669,-0.573665 0.23038,-0.824891 -0.0162,-0.251514 -0.55395,-0.469406 -0.73282,-0.703752 -0.1786,-0.234348 -0.59084,-0.254628 -0.79921,-0.454221 -0.19706,-0.187962 -0.55765,-0.555509 -0.59282,-0.809288 0.0332,-0.05165 0.0593,-0.111507 0.0718,-0.174483 0.002,-0.01154 0.004,-0.02255 0.006,-0.03348 0.23745,0.0173 0.59962,0.242434 0.80077,0.376059 0.24456,0.162426 0.41734,0.62502 0.67905,0.740346 0.26188,0.115042 0.64602,0.646295 0.86037,0.569837 0.21449,-0.07646 0.4985,-0.264562 0.59651,-0.575368 0.0982,-0.310665 -0.41862,-0.788297 -0.74631,-0.816668 z"
         inkscape:connector-curvature="0" />
      <path
         id="path3431"
         style="fill:#000000;fill-rule:nonzero;stroke-width:0.4003492"
         d="m 116.15283,95.54841 c -0.22597,-0.43536 -0.1094,-1.585098 -0.28412,-2.090958 -0.16868,-0.488695 -0.37565,-0.640194 -0.9049,-1.121089 0.19873,-0.117026 0.39264,-0.26442 0.45067,-0.447558 0.10591,-0.335347 0.34399,-1.170595 0.21477,-1.575451 -0.12938,-0.405142 6.1e-4,-0.793828 -0.53963,-0.855395 -0.33293,-0.03816 -0.49863,0.581328 -0.47904,0.881636 0.0191,0.299741 0.18654,1.353733 0.12652,1.581127 -0.0196,0.07377 -0.0486,0.139027 -0.0817,0.178172 -0.0496,-0.02794 -0.10387,-0.04625 -0.1586,-0.05602 -8e-4,-0.0024 -0.002,-0.0044 -0.004,-0.0071 -0.0888,-0.201294 -0.28881,-1.030441 -0.34925,-1.736317 -0.0196,-0.228246 -0.17547,-0.76432 -0.36359,-0.892416 -0.18836,-0.128237 -0.65125,-0.111218 -0.70914,0.312507 -0.0396,0.290808 0.14131,1.294436 0.52545,1.887961 0.12059,0.186401 0.44656,0.36996 0.59934,0.51905 -0.0504,0.063 -0.0572,0.149952 -0.0126,0.238465 -0.46401,0.30215 -0.64872,0.382585 -0.75554,0.807726 -0.10988,0.438477 0.14174,1.601273 -0.0271,1.954211 -0.16881,0.353077 -0.0622,1.251029 0.26358,1.397136 0.32554,0.146109 0.65522,0.0081 0.84745,-0.147821 0.19234,-0.155895 -0.039,-0.962205 0.0164,-1.317271 0.0551,-0.355066 -0.24145,-0.894121 -0.23762,-1.268762 0.004,-0.353077 0.0291,-1.012849 0.20924,-1.194566 0.0671,0.01517 0.13562,0.01589 0.19689,-0.0013 0.0108,-0.0032 0.0213,-0.0071 0.0314,-0.01118 0.16642,0.313786 0.25804,0.898799 0.30202,1.228613 0.0533,0.400461 -0.19235,0.870149 -0.0872,1.267771 0.10496,0.397482 -0.0358,1.175275 0.18937,1.408915 0.22543,0.233779 0.59438,0.496493 0.92207,0.455354 0.32783,-0.041 0.32428,-0.959935 0.0982,-1.395432 z"
         inkscape:connector-curvature="0" />
    </g>
    <path
       style="opacity:0.322;fill:#19c7c4;fill-opacity:1;stroke:#000000;stroke-width:0.35609919px;stroke-linecap:butt;stroke-linejoin:miter;stroke-opacity:1"
       d="m 73.88631,99.80859 c 2.831851,0.39065 0.233591,10.49786 6.474864,12.94974 21.803486,8.56546 41.372836,0.55161 44.065026,-0.71944 -2.98316,7.39298 -23.89679,6.13371 -28.057739,5.75544 -6.101086,-0.52833 -13.993744,-1.24154 -18.165577,-4.49644 -4.171833,-3.2549 -6.440873,-8.91319 -6.115145,-11.51087 0.325727,-2.597682 -1.033279,-2.36908 1.798571,-1.97843 z"
       id="path3316"
       inkscape:connector-curvature="0"
       sodipodi:nodetypes="zscczzz"
       inkscape:export-xdpi="161.50999"
       inkscape:export-ydpi="161.50999" />
    <path
       style="fill:none;stroke:#c80000;stroke-width:1.36500001;stroke-linecap:round;stroke-linejoin:round;stroke-miterlimit:4;stroke-dasharray:2.73, 2.73;stroke-dashoffset:0;stroke-opacity:1;marker-end:url(#Arrow1Send)"
       d="M 94.177778,88.047799 C 89.122606,86.171643 78.361754,92.820136 77.154267,108.13331"
       id="path3318"
       inkscape:connector-curvature="0"
       sodipodi:nodetypes="cc"
       inkscape:export-xdpi="161.50999"
       inkscape:export-ydpi="161.50999" />
    <g
       id="g7503"
       transform="translate(-10.557146,-3.4745039)"
       inkscape:export-xdpi="161.50999"
       inkscape:export-ydpi="161.50999">
      <rect
         ry="2.3623512"
         y="86.75074"
         x="64.255951"
         height="9.5438995"
         width="24.662947"
         id="rect6095"
         style="fill:#c80000;fill-opacity:1;stroke:none;stroke-width:0.66500002;stroke-linecap:round;stroke-linejoin:round;stroke-miterlimit:4;stroke-dasharray:1.33, 1.33;stroke-dashoffset:0;stroke-opacity:1" />
      <text
         id="text4884"
         y="94.593735"
         x="68.192551"
         style="font-style:normal;font-weight:normal;font-size:7.99091768px;line-height:1.25;font-family:sans-serif;letter-spacing:0px;word-spacing:0px;fill:#ffffff;fill-opacity:1;stroke:none;stroke-width:0.19977294"
         xml:space="preserve"><tspan
           style="fill:#ffffff;stroke-width:0.19977294"
           y="94.593735"
           x="68.192551"
           id="tspan4882"
           sodipodi:role="line">ARN</tspan></text>
    </g>
    <path
       style="fill:none;stroke:#4f8200;stroke-width:1.36500001;stroke-linecap:round;stroke-linejoin:round;stroke-miterlimit:4;stroke-dasharray:2.73000003, 2.73000003;stroke-dashoffset:0;stroke-opacity:1;marker-end:url(#Arrow1Send-6)"
       d="m 73.759875,108.4904 c -4.053624,2.4857 -18.995146,9.69635 -34.387924,9.3366"
       id="path3318-9"
       inkscape:connector-curvature="0"
       sodipodi:nodetypes="cc"
       inkscape:export-xdpi="161.50999"
       inkscape:export-ydpi="161.50999" />
    <rect
       style="fill:#4f8200;fill-opacity:1;stroke:none;stroke-width:0.50579631;stroke-linecap:round;stroke-linejoin:round;stroke-miterlimit:4;stroke-dasharray:1.01159258, 1.01159258;stroke-dashoffset:0;stroke-opacity:1"
       id="rect6095-1"
       width="23.623512"
       height="5.7641377"
       x="40.396206"
       y="103.42895"
       ry="1.4267666"
       inkscape:export-xdpi="161.50999"
       inkscape:export-ydpi="161.50999" />
    <text
       xml:space="preserve"
       style="font-style:normal;font-weight:normal;font-size:4.80032063px;line-height:1.25;font-family:sans-serif;letter-spacing:0px;word-spacing:0px;fill:#ffffff;fill-opacity:1;stroke:none;stroke-width:0.12000801"
       x="42.104553"
       y="107.73142"
       id="text4884-2"
       inkscape:export-xdpi="161.50999"
       inkscape:export-ydpi="161.50999"><tspan
         sodipodi:role="line"
         id="tspan4882-7"
         x="42.104553"
         y="107.73142"
         style="fill:#ffffff;stroke-width:0.12000801">protéine</tspan></text>
    <path
       style="fill:none;stroke:#4f8200;stroke-width:1.36500001;stroke-linecap:round;stroke-linejoin:round;stroke-miterlimit:4;stroke-dasharray:2.73000006, 2.73000006;stroke-dashoffset:0;stroke-opacity:1;marker-end:url(#Arrow1Send-6-0)"
       d="m 74.709265,112.10767 c -2.014917,4.30705 -12.051419,3.58769 -12.803446,13.89877"
       id="path3318-9-3"
       inkscape:connector-curvature="0"
       sodipodi:nodetypes="cc"
       inkscape:export-xdpi="161.50999"
       inkscape:export-ydpi="161.50999" />
    <path
       style="fill:none;stroke:#4f8200;stroke-width:1.36500001;stroke-linecap:round;stroke-linejoin:round;stroke-miterlimit:4;stroke-dasharray:2.73000009, 2.73000009;stroke-dashoffset:0;stroke-opacity:1;marker-end:url(#Arrow1Send-6-0-6)"
       d="m 77.307851,112.48565 c -0.899865,3.50934 1.169058,11.25093 8.315163,5.48741"
       id="path3318-9-3-6"
       inkscape:connector-curvature="0"
       sodipodi:nodetypes="cc"
       inkscape:export-xdpi="161.50999"
       inkscape:export-ydpi="161.50999" />
    <rect
       style="fill:#4f8200;fill-opacity:1;stroke:none;stroke-width:1.36500001;stroke-linecap:round;stroke-linejoin:round;stroke-miterlimit:4;stroke-dasharray:2.72999997, 2.72999997;stroke-dashoffset:0;stroke-opacity:1"
       id="rect7447"
       width="6.614583"
       height="4.2522321"
       x="54.546349"
       y="105.44661"
       ry="1.0866793"
       transform="rotate(13.617966)"
       inkscape:export-xdpi="161.50999"
       inkscape:export-ydpi="161.50999" />
    <rect
       style="fill:#4f8200;fill-opacity:1;stroke:none;stroke-width:1.36500001;stroke-linecap:round;stroke-linejoin:round;stroke-miterlimit:4;stroke-dasharray:2.72999995, 2.72999995;stroke-dashoffset:0;stroke-opacity:1"
       id="rect7447-2"
       width="6.614583"
       height="4.2522321"
       x="188.03943"
       y="-8.5829239"
       ry="1.0866793"
       transform="rotate(48.595515)"
       inkscape:transform-center-x="4.77184"
       inkscape:transform-center-y="-12.795084"
       inkscape:export-xdpi="161.50999"
       inkscape:export-ydpi="161.50999" />
    <rect
       style="fill:#4f8200;fill-opacity:1;stroke:none;stroke-width:1.36500001;stroke-linecap:round;stroke-linejoin:round;stroke-miterlimit:4;stroke-dasharray:2.72999993, 2.72999993;stroke-dashoffset:0;stroke-opacity:1"
       id="rect7447-2-6"
       width="6.614583"
       height="4.2522321"
       x="187.8867"
       y="8.249609"
       ry="1.0866793"
       transform="rotate(48.595515)"
       inkscape:transform-center-x="4.77184"
       inkscape:transform-center-y="-12.795084"
       inkscape:export-xdpi="161.50999"
       inkscape:export-ydpi="161.50999" />
    <rect
       style="fill:#4f8200;fill-opacity:1;stroke:none;stroke-width:1.36500001;stroke-linecap:round;stroke-linejoin:round;stroke-miterlimit:4;stroke-dasharray:2.72999993, 2.72999993;stroke-dashoffset:0;stroke-opacity:1"
       id="rect7447-2-1"
       width="6.614583"
       height="4.2522321"
       x="97.833435"
       y="-127.3082"
       ry="1.0866793"
       transform="rotate(129.32623)"
       inkscape:transform-center-x="-0.30396372"
       inkscape:transform-center-y="-0.41628696"
       inkscape:export-xdpi="161.50999"
       inkscape:export-ydpi="161.50999" />
    <g
       id="g9428"
       transform="translate(-1.4699824,3.3408691)"
       inkscape:export-xdpi="161.50999"
       inkscape:export-ydpi="161.50999">
      <rect
         ry="1.4267666"
         y="123.7336"
         x="98.43692"
         height="5.7641377"
         width="23.623512"
         id="rect6095-1-2"
         style="fill:#4f31ca;fill-opacity:1;stroke:none;stroke-width:0.50579631;stroke-linecap:round;stroke-linejoin:round;stroke-miterlimit:4;stroke-dasharray:1.01159259, 1.01159259;stroke-dashoffset:0;stroke-opacity:1" />
      <text
         id="text4884-2-0"
         y="128.02762"
         x="100.74648"
         style="font-style:normal;font-weight:normal;font-size:4.80032063px;line-height:1.25;font-family:sans-serif;letter-spacing:0px;word-spacing:0px;fill:#ffffff;fill-opacity:1;stroke:none;stroke-width:0.12000801"
         xml:space="preserve"><tspan
           style="fill:#ffffff;stroke-width:0.12000801"
           y="128.02762"
           x="100.74648"
           id="tspan4882-7-2"
           sodipodi:role="line">enzyme</tspan></text>
    </g>
    <path
       style="opacity:0.68599997;fill:#b94d1d;fill-opacity:1;stroke:#000000;stroke-width:0.86500001;stroke-linecap:butt;stroke-linejoin:miter;stroke-miterlimit:4;stroke-dasharray:none;stroke-opacity:1"
       d="m 49.874294,130.25684 c 7.690001,-3.90937 14.949997,8.75421 22.985181,11.8935 3.140441,1.22694 7.968202,-0.18631 9.755337,2.67269 2.042196,3.26705 1.053066,9.20019 -2.138156,11.35895 -6.657016,4.50327 -16.795907,-0.48546 -23.653353,-4.67721 -3.923538,-2.39833 -7.379242,-6.37814 -8.552625,-10.82442 -0.897008,-3.39901 -1.530074,-8.83043 1.603616,-10.42351 z"
       id="path9430"
       inkscape:connector-curvature="0"
       sodipodi:nodetypes="aaaaaaa"
       inkscape:export-xdpi="161.50999"
       inkscape:export-ydpi="161.50999" />
    <rect
       style="fill:#4f8200;fill-opacity:1;stroke:none;stroke-width:1.36500001;stroke-linecap:round;stroke-linejoin:round;stroke-miterlimit:4;stroke-dasharray:2.72999995, 2.72999995;stroke-dashoffset:0;stroke-opacity:1"
       id="rect7447-3"
       width="6.614583"
       height="4.2522321"
       x="73.687096"
       y="-126.70321"
       ry="1.0866793"
       transform="rotate(124.06031)"
       inkscape:export-xdpi="161.50999"
       inkscape:export-ydpi="161.50999" />
    <rect
       style="fill:#4f8200;fill-opacity:1;stroke:none;stroke-width:1.36500001;stroke-linecap:round;stroke-linejoin:round;stroke-miterlimit:4;stroke-dasharray:2.72999995, 2.72999995;stroke-dashoffset:0;stroke-opacity:1"
       id="rect7447-7"
       width="6.614583"
       height="4.2522321"
       x="-60.602642"
       y="143.12051"
       ry="1.0866793"
       transform="rotate(-40.829824)"
       inkscape:export-xdpi="161.50999"
       inkscape:export-ydpi="161.50999" />
    <rect
       style="fill:#4f31ca;fill-opacity:1;stroke:none;stroke-width:1.36500001;stroke-linecap:round;stroke-linejoin:round;stroke-miterlimit:4;stroke-dasharray:2.72999993, 2.72999993;stroke-dashoffset:0;stroke-opacity:1"
       id="rect7447-3-5"
       width="4.8317814"
       height="4.2716246"
       x="97.937294"
       y="126.20882"
       ry="1.8445926"
       transform="rotate(13.617966)"
       inkscape:export-xdpi="161.50999"
       inkscape:export-ydpi="161.50999" />
    <rect
       style="fill:#4f31ca;fill-opacity:1;stroke:none;stroke-width:1.36500001;stroke-linecap:round;stroke-linejoin:round;stroke-miterlimit:4;stroke-dasharray:2.72999991, 2.72999991;stroke-dashoffset:0;stroke-opacity:1"
       id="rect7447-3-5-9"
       width="4.8317814"
       height="4.2716246"
       x="102.76907"
       y="126.20882"
       ry="1.8445926"
       transform="rotate(13.617966)"
       inkscape:export-xdpi="161.50999"
       inkscape:export-ydpi="161.50999" />
    <rect
       style="fill:#4f31ca;fill-opacity:1;stroke:none;stroke-width:1.36500001;stroke-linecap:round;stroke-linejoin:round;stroke-miterlimit:4;stroke-dasharray:2.72999991, 2.72999991;stroke-dashoffset:0;stroke-opacity:1"
       id="rect7447-3-5-2"
       width="4.8317814"
       height="4.2716246"
       x="90.017822"
       y="121.0461"
       ry="1.8445926"
       transform="rotate(13.617966)"
       inkscape:export-xdpi="161.50999"
       inkscape:export-ydpi="161.50999" />
    <path
       style="fill:none;stroke:#4f31ca;stroke-width:1.36500001;stroke-linecap:round;stroke-linejoin:round;stroke-miterlimit:4;stroke-dasharray:2.73000009, 2.73000009;stroke-dashoffset:0;stroke-opacity:1;marker-end:url(#Arrow1Send-6-0-8)"
       d="m 89.559025,117.25348 c 1.371871,6.66307 -2.923239,23.45786 -11.080971,28.37885"
       id="path3318-9-3-9"
       inkscape:connector-curvature="0"
       sodipodi:nodetypes="cc"
       inkscape:export-xdpi="161.50999"
       inkscape:export-ydpi="161.50999" />
    <text
       xml:space="preserve"
       style="font-style:normal;font-variant:normal;font-weight:bold;font-stretch:normal;font-size:7.06825542px;line-height:1.25;font-family:sans-serif;-inkscape-font-specification:'sans-serif, Bold';font-variant-ligatures:normal;font-variant-caps:normal;font-variant-numeric:normal;font-feature-settings:normal;text-align:start;letter-spacing:0px;word-spacing:0px;writing-mode:lr-tb;text-anchor:start;fill:#ca7e59;fill-opacity:1;stroke:none;stroke-width:0.17670672;stroke-opacity:1"
       x="62.508343"
       y="164.57004"
       id="text10253"
       inkscape:export-xdpi="161.50999"
       inkscape:export-ydpi="161.50999"><tspan
         sodipodi:role="line"
         id="tspan10251"
         x="62.508343"
         y="164.57004"
         style="font-style:normal;font-variant:normal;font-weight:bold;font-stretch:normal;font-size:7.06825542px;font-family:sans-serif;-inkscape-font-specification:'sans-serif, Bold';font-variant-ligatures:normal;font-variant-caps:normal;font-variant-numeric:normal;font-feature-settings:normal;text-align:start;writing-mode:lr-tb;text-anchor:start;fill:#ca7e59;fill-opacity:1;stroke:none;stroke-width:0.17670672;stroke-opacity:1">lysosome</tspan></text>
  </g>
</svg>
